<svg xmlns="http://www.w3.org/2000/svg" width="1120" height="408" viewBox="0 0 1120 408" role="img" aria-label="Ridgeline Coffee Roasters colors">
<!-- Generated by bkr export. Do not edit by hand. -->
<rect width="1120" height="408" fill="#FFFFFF"/>
<g font-family="system-ui, -apple-system, 'Segoe UI', Roboto, Arial, sans-serif">
<text x="16" y="30" font-size="20" font-weight="700" fill="#18181B">Ridgeline Coffee Roasters colors</text>
<rect x="16" y="48" width="168" height="104" rx="10" fill="#2B1A12" stroke="#D4D4D8"/>
<text x="28" y="138" font-size="14" font-weight="700" fill="#FFFFFF">#2B1A12</text>
<text x="16" y="174" font-size="15" font-weight="700" fill="#18181B">ink</text>
<text x="16" y="194" font-size="12" fill="#52525B">palette.ink</text>
<rect x="200" y="48" width="168" height="104" rx="10" fill="#4A3A30" stroke="#D4D4D8"/>
<text x="212" y="138" font-size="14" font-weight="700" fill="#FFFFFF">#4A3A30</text>
<text x="200" y="174" font-size="15" font-weight="700" fill="#18181B">body</text>
<text x="200" y="194" font-size="12" fill="#52525B">palette.body</text>
<rect x="384" y="48" width="168" height="104" rx="10" fill="#FAF4EA" stroke="#D4D4D8"/>
<text x="396" y="138" font-size="14" font-weight="700" fill="#111111">#FAF4EA</text>
<text x="384" y="174" font-size="15" font-weight="700" fill="#18181B">surface</text>
<text x="384" y="194" font-size="12" fill="#52525B">palette.surface</text>
<rect x="568" y="48" width="168" height="104" rx="10" fill="#FFFFFF" stroke="#D4D4D8"/>
<text x="580" y="138" font-size="14" font-weight="700" fill="#111111">#FFFFFF</text>
<text x="568" y="174" font-size="15" font-weight="700" fill="#18181B">white</text>
<text x="568" y="194" font-size="12" fill="#52525B">palette.white</text>
<rect x="752" y="48" width="168" height="104" rx="10" fill="#B4501E" stroke="#D4D4D8"/>
<text x="764" y="138" font-size="14" font-weight="700" fill="#FFFFFF">#B4501E</text>
<text x="752" y="174" font-size="15" font-weight="700" fill="#18181B">copper</text>
<text x="752" y="194" font-size="12" fill="#52525B">palette.copper</text>
<rect x="936" y="48" width="168" height="104" rx="10" fill="#FFFFFF" stroke="#D4D4D8"/>
<text x="948" y="138" font-size="14" font-weight="700" fill="#111111">#FFFFFF</text>
<text x="936" y="174" font-size="15" font-weight="700" fill="#18181B">onPrimary</text>
<text x="936" y="194" font-size="12" fill="#52525B">palette.onPrimary</text>
<rect x="16" y="220" width="168" height="104" rx="10" fill="#9A3F14" stroke="#D4D4D8"/>
<text x="28" y="310" font-size="14" font-weight="700" fill="#FFFFFF">#9A3F14</text>
<text x="16" y="346" font-size="15" font-weight="700" fill="#18181B">link</text>
<text x="16" y="366" font-size="12" fill="#52525B">palette.link</text>
<rect x="200" y="220" width="168" height="104" rx="10" fill="#8FA68A" stroke="#D4D4D8"/>
<text x="212" y="310" font-size="14" font-weight="700" fill="#111111">#8FA68A</text>
<text x="200" y="346" font-size="15" font-weight="700" fill="#18181B">sage</text>
<text x="200" y="366" font-size="12" fill="#52525B">palette.sage</text>
<rect x="384" y="220" width="168" height="104" rx="10" fill="#F1E6D6" stroke="#D4D4D8"/>
<text x="396" y="310" font-size="14" font-weight="700" fill="#111111">#F1E6D6</text>
<text x="384" y="346" font-size="15" font-weight="700" fill="#18181B">card</text>
<text x="384" y="366" font-size="12" fill="#52525B">palette.card</text>
</g>
</svg>
