<svg xmlns="http://www.w3.org/2000/svg" width="960" height="360" viewBox="0 0 960 360" role="img" aria-label="Cedar Hollow Community Pantry: do and don't">
<!-- Generated by obks export. Do not edit by hand. -->
<rect width="960" height="360" fill="#FFFFFF"/>
<g font-family="system-ui, -apple-system, 'Segoe UI', Roboto, Arial, sans-serif">
<text x="16" y="32" font-size="20" font-weight="700" fill="#18181B">Cedar Hollow Community Pantry: do and don't</text>
<text x="16" y="62" font-size="16" font-weight="700" fill="#116329">Do</text>
<text x="496" y="62" font-size="16" font-weight="700" fill="#A40E26">Don't</text>
<circle cx="28" cy="102" r="11" fill="#116329"/><path d="M23 102 l3.5 4 l6.5 -8" stroke="#FFFFFF" stroke-width="2.5" fill="none" stroke-linecap="round" stroke-linejoin="round"/>
<rect x="48" y="80" width="180" height="44" rx="8" fill="#FFFDF8" stroke="#D4D4D8"/>
<text x="138" y="109" text-anchor="middle" font-size="17" font-weight="700" fill="#3D4A42">Aa Sample</text>
<text x="242" y="92" font-size="13" font-weight="700" fill="#18181B">palette.body on palette.surface</text>
<text x="242" y="110" font-size="12" fill="#52525B">9.15:1. body text</text>
<circle cx="28" cy="166" r="11" fill="#116329"/><path d="M23 166 l3.5 4 l6.5 -8" stroke="#FFFFFF" stroke-width="2.5" fill="none" stroke-linecap="round" stroke-linejoin="round"/>
<rect x="48" y="144" width="180" height="44" rx="8" fill="#FFFDF8" stroke="#D4D4D8"/>
<text x="138" y="173" text-anchor="middle" font-size="17" font-weight="700" fill="#1F2A24">Aa Sample</text>
<text x="242" y="156" font-size="13" font-weight="700" fill="#18181B">palette.ink on palette.surface</text>
<text x="242" y="174" font-size="12" fill="#52525B">14.59:1. headings</text>
<circle cx="28" cy="230" r="11" fill="#116329"/><path d="M23 230 l3.5 4 l6.5 -8" stroke="#FFFFFF" stroke-width="2.5" fill="none" stroke-linecap="round" stroke-linejoin="round"/>
<rect x="48" y="208" width="180" height="44" rx="8" fill="#2F6B3A" stroke="#D4D4D8"/>
<text x="138" y="237" text-anchor="middle" font-size="17" font-weight="700" fill="#FFFFFF">Aa Sample</text>
<text x="242" y="220" font-size="13" font-weight="700" fill="#18181B">palette.onPrimary on palette.primary</text>
<text x="242" y="238" font-size="12" fill="#52525B">6.39:1. buttons and banners</text>
<circle cx="28" cy="294" r="11" fill="#116329"/><path d="M23 294 l3.5 4 l6.5 -8" stroke="#FFFFFF" stroke-width="2.5" fill="none" stroke-linecap="round" stroke-linejoin="round"/>
<rect x="48" y="272" width="180" height="44" rx="8" fill="#FFFDF8" stroke="#D4D4D8"/>
<text x="138" y="301" text-anchor="middle" font-size="17" font-weight="700" fill="#2F6B3A">Aa Sample</text>
<text x="242" y="284" font-size="13" font-weight="700" fill="#18181B">palette.link on palette.surface</text>
<text x="242" y="302" font-size="12" fill="#52525B">6.28:1. links</text>
<circle cx="508" cy="102" r="11" fill="#A40E26"/><path d="M503.5 97.5 l9 9 M512.5 97.5 l-9 9" stroke="#FFFFFF" stroke-width="2.5" stroke-linecap="round"/>
<rect x="528" y="80" width="180" height="44" rx="8" fill="#FFFDF8" stroke="#D4D4D8"/>
<text x="618" y="109" text-anchor="middle" font-size="17" font-weight="700" fill="#E8902E">Aa Sample</text>
<text x="722" y="92" font-size="13" font-weight="700" fill="#18181B">palette.harvest on palette.surface</text>
<text x="722" y="110" font-size="12" fill="#52525B">2.44:1. Harvest orange is too light</text>
<text x="722" y="125" font-size="12" fill="#52525B">for text on the page</text>
<circle cx="508" cy="166" r="11" fill="#A40E26"/><path d="M503.5 161.5 l9 9 M512.5 161.5 l-9 9" stroke="#FFFFFF" stroke-width="2.5" stroke-linecap="round"/>
<rect x="528" y="144" width="180" height="44" rx="8" fill="#E8902E" stroke="#D4D4D8"/>
<text x="618" y="173" text-anchor="middle" font-size="17" font-weight="700" fill="#FFFFFF">Aa Sample</text>
<text x="722" y="156" font-size="13" font-weight="700" fill="#18181B">palette.onPrimary on palette.harvest</text>
<text x="722" y="174" font-size="12" fill="#52525B">2.48:1. White labels on harvest are</text>
<text x="722" y="189" font-size="12" fill="#52525B">too faint</text>
<circle cx="508" cy="230" r="11" fill="#A40E26"/><path d="M503.5 225.5 l9 9 M512.5 225.5 l-9 9" stroke="#FFFFFF" stroke-width="2.5" stroke-linecap="round"/>
<rect x="528" y="208" width="180" height="44" rx="8" fill="#1F2A24" stroke="#D4D4D8"/>
<text x="618" y="237" text-anchor="middle" font-size="17" font-weight="700" fill="#2F6B3A">Aa Sample</text>
<text x="722" y="220" font-size="13" font-weight="700" fill="#18181B">palette.primary on palette.ink</text>
<text x="722" y="238" font-size="12" fill="#52525B">2.32:1. Green on near-black is hard to</text>
<text x="722" y="253" font-size="12" fill="#52525B">read</text>
</g>
</svg>
