<svg xmlns="http://www.w3.org/2000/svg" width="960" height="296" viewBox="0 0 960 296" role="img" aria-label="Acme Docs: do and don't">
<!-- Generated by bkr export. Do not edit by hand. -->
<rect width="960" height="296" fill="#FFFFFF"/>
<g font-family="system-ui, -apple-system, 'Segoe UI', Roboto, Arial, sans-serif">
<text x="16" y="32" font-size="20" font-weight="700" fill="#18181B">Acme Docs: do and don't</text>
<text x="16" y="62" font-size="16" font-weight="700" fill="#116329">Do</text>
<text x="496" y="62" font-size="16" font-weight="700" fill="#A40E26">Don't</text>
<circle cx="28" cy="102" r="11" fill="#116329"/><path d="M23 102 l3.5 4 l6.5 -8" stroke="#FFFFFF" stroke-width="2.5" fill="none" stroke-linecap="round" stroke-linejoin="round"/>
<rect x="48" y="80" width="180" height="44" rx="8" fill="#FFFFFF" stroke="#D4D4D8"/>
<text x="138" y="109" text-anchor="middle" font-size="17" font-weight="700" fill="#0F172A">Aa Sample</text>
<text x="242" y="92" font-size="13" font-weight="700" fill="#18181B">palette.ink on palette.surface</text>
<text x="242" y="110" font-size="12" fill="#52525B">17.85:1. headings and body text</text>
<circle cx="28" cy="166" r="11" fill="#116329"/><path d="M23 166 l3.5 4 l6.5 -8" stroke="#FFFFFF" stroke-width="2.5" fill="none" stroke-linecap="round" stroke-linejoin="round"/>
<rect x="48" y="144" width="180" height="44" rx="8" fill="#2563EB" stroke="#D4D4D8"/>
<text x="138" y="173" text-anchor="middle" font-size="17" font-weight="700" fill="#FFFFFF">Aa Sample</text>
<text x="242" y="156" font-size="13" font-weight="700" fill="#18181B">palette.onPrimary on palette.primary</text>
<text x="242" y="174" font-size="12" fill="#52525B">5.16:1. button labels</text>
<circle cx="28" cy="230" r="11" fill="#116329"/><path d="M23 230 l3.5 4 l6.5 -8" stroke="#FFFFFF" stroke-width="2.5" fill="none" stroke-linecap="round" stroke-linejoin="round"/>
<rect x="48" y="208" width="180" height="44" rx="8" fill="#FFFFFF" stroke="#D4D4D8"/>
<text x="138" y="237" text-anchor="middle" font-size="17" font-weight="700" fill="#1D4ED8">Aa Sample</text>
<text x="242" y="220" font-size="13" font-weight="700" fill="#18181B">palette.link on palette.surface</text>
<text x="242" y="238" font-size="12" fill="#52525B">6.70:1. links</text>
<circle cx="508" cy="102" r="11" fill="#A40E26"/><path d="M503.5 97.5 l9 9 M512.5 97.5 l-9 9" stroke="#FFFFFF" stroke-width="2.5" stroke-linecap="round"/>
<rect x="528" y="80" width="180" height="44" rx="8" fill="#0F172A" stroke="#D4D4D8"/>
<text x="618" y="109" text-anchor="middle" font-size="17" font-weight="700" fill="#7C3AED">Aa Sample</text>
<text x="722" y="92" font-size="13" font-weight="700" fill="#18181B">palette.productAccent on palette.ink</text>
<text x="722" y="110" font-size="12" fill="#52525B">3.13:1. Purple on near-black is hard</text>
<text x="722" y="125" font-size="12" fill="#52525B">to read</text>
<circle cx="508" cy="166" r="11" fill="#A40E26"/><path d="M503.5 161.5 l9 9 M512.5 161.5 l-9 9" stroke="#FFFFFF" stroke-width="2.5" stroke-linecap="round"/>
<rect x="528" y="144" width="180" height="44" rx="8" fill="#2563EB" stroke="#D4D4D8"/>
<text x="618" y="173" text-anchor="middle" font-size="17" font-weight="700" fill="#7C3AED">Aa Sample</text>
<text x="722" y="156" font-size="13" font-weight="700" fill="#18181B">palette.productAccent on palette.primary</text>
<text x="722" y="174" font-size="12" fill="#52525B">1.10:1. Two brand colors fighting;</text>
<text x="722" y="189" font-size="12" fill="#52525B">never text on primary</text>
</g>
</svg>
