<svg xmlns="http://www.w3.org/2000/svg" width="480" height="96" viewBox="0 0 480 96" role="img" aria-label="Brightwater County">
  <g transform="translate(8 8) scale(0.625)">
    <rect width="128" height="128" rx="24" fill="#1B4F8A"/>
    <circle cx="64" cy="58" r="24" fill="#F2B632"/>
    <path d="M14 82c12-9 24-9 36 0s24 9 36 0s16-7 28 0v32H14Z" fill="#1B4F8A"/>
    <path d="M14 82c12-9 24-9 36 0s24 9 36 0s16-7 28 0" fill="none" stroke="#FFFFFF" stroke-width="8" stroke-linecap="round"/>
    <path d="M14 102c12-9 24-9 36 0s24 9 36 0s16-7 28 0" fill="none" stroke="#FFFFFF" stroke-width="8" stroke-linecap="round"/>
  </g>
  <text x="106" y="60" font-family="'Public Sans', system-ui, -apple-system, 'Segoe UI', Arial, sans-serif" font-size="36" font-weight="700" fill="#0B1F33">Brightwater County</text>
</svg>
