<svg xmlns="http://www.w3.org/2000/svg" width="960" height="1032" viewBox="0 0 960 1032" role="img" aria-label="Brightwater County text and background pairs">
<!-- Generated by obks export. Do not edit by hand. -->
<rect width="960" height="1032" fill="#FFFFFF"/>
<g font-family="system-ui, -apple-system, 'Segoe UI', Roboto, Arial, sans-serif">
<text x="16" y="32" font-size="20" font-weight="700" fill="#18181B">Brightwater County text and background pairs</text>
<rect x="16" y="52" width="420" height="48" rx="8" fill="#FFFFFF" stroke="#D4D4D8"/>
<text x="32" y="83" font-size="18" font-weight="700" fill="#2B3A4A">Aa  Sample text in this pair</text>
<text x="452" y="73" font-size="14" font-weight="700" fill="#18181B">palette.body on palette.surface</text>
<text x="452" y="92" font-size="12" fill="#52525B">body text</text>
<text x="800" y="82" font-size="15" font-weight="700" fill="#18181B">11.62:1</text>
<text x="880" y="82" font-size="15" font-weight="700" fill="#116329">Pass</text>
<rect x="16" y="112" width="420" height="48" rx="8" fill="#FFFFFF" stroke="#D4D4D8"/>
<text x="32" y="143" font-size="18" font-weight="700" fill="#0B1F33">Aa  Sample text in this pair</text>
<text x="452" y="133" font-size="14" font-weight="700" fill="#18181B">palette.ink on palette.surface</text>
<text x="452" y="152" font-size="12" fill="#52525B">headings</text>
<text x="800" y="142" font-size="15" font-weight="700" fill="#18181B">16.69:1</text>
<text x="880" y="142" font-size="15" font-weight="700" fill="#116329">Pass</text>
<rect x="16" y="172" width="420" height="48" rx="8" fill="#FFFFFF" stroke="#D4D4D8"/>
<text x="32" y="203" font-size="18" font-weight="700" fill="#1A5DAB">Aa  Sample text in this pair</text>
<text x="452" y="193" font-size="14" font-weight="700" fill="#18181B">palette.link on palette.surface</text>
<text x="452" y="212" font-size="12" fill="#52525B">links</text>
<text x="800" y="202" font-size="15" font-weight="700" fill="#18181B">6.56:1</text>
<text x="880" y="202" font-size="15" font-weight="700" fill="#116329">Pass</text>
<rect x="16" y="232" width="420" height="48" rx="8" fill="#1B4F8A" stroke="#D4D4D8"/>
<text x="32" y="263" font-size="18" font-weight="700" fill="#FFFFFF">Aa  Sample text in this pair</text>
<text x="452" y="253" font-size="14" font-weight="700" fill="#18181B">palette.onPrimary on palette.primary</text>
<text x="452" y="272" font-size="12" fill="#52525B">white label on a civic blue button</text>
<text x="800" y="262" font-size="15" font-weight="700" fill="#18181B">8.29:1</text>
<text x="880" y="262" font-size="15" font-weight="700" fill="#116329">Pass</text>
<rect x="16" y="292" width="420" height="48" rx="8" fill="#EAF2FA" stroke="#D4D4D8"/>
<text x="32" y="323" font-size="18" font-weight="700" fill="#2B3A4A">Aa  Sample text in this pair</text>
<text x="452" y="313" font-size="14" font-weight="700" fill="#18181B">palette.body on palette.subtle</text>
<text x="452" y="332" font-size="12" fill="#52525B">text on a card</text>
<text x="800" y="322" font-size="15" font-weight="700" fill="#18181B">10.28:1</text>
<text x="880" y="322" font-size="15" font-weight="700" fill="#116329">Pass</text>
<rect x="16" y="352" width="420" height="48" rx="8" fill="#EAF2FA" stroke="#D4D4D8"/>
<text x="32" y="383" font-size="18" font-weight="700" fill="#1A5DAB">Aa  Sample text in this pair</text>
<text x="452" y="373" font-size="14" font-weight="700" fill="#18181B">palette.link on palette.subtle</text>
<text x="452" y="392" font-size="12" fill="#52525B">links on a card</text>
<text x="800" y="382" font-size="15" font-weight="700" fill="#18181B">5.81:1</text>
<text x="880" y="382" font-size="15" font-weight="700" fill="#116329">Pass</text>
<rect x="16" y="412" width="420" height="48" rx="8" fill="#2E7D4F" stroke="#D4D4D8"/>
<text x="32" y="443" font-size="18" font-weight="700" fill="#FFFFFF">Aa  Sample text in this pair</text>
<text x="452" y="433" font-size="14" font-weight="700" fill="#18181B">palette.onPrimary on palette.success</text>
<text x="452" y="452" font-size="12" fill="#52525B">white text on a green success message</text>
<text x="800" y="442" font-size="15" font-weight="700" fill="#18181B">5.04:1</text>
<text x="880" y="442" font-size="15" font-weight="700" fill="#116329">Pass</text>
<rect x="16" y="472" width="420" height="48" rx="8" fill="#F2B632" stroke="#D4D4D8"/>
<text x="32" y="503" font-size="18" font-weight="700" fill="#0B1F33">Aa  Sample text in this pair</text>
<text x="452" y="493" font-size="14" font-weight="700" fill="#18181B">palette.onAlert on palette.alert</text>
<text x="452" y="512" font-size="12" fill="#52525B">dark text on a gold alert banner</text>
<text x="800" y="502" font-size="15" font-weight="700" fill="#18181B">9.15:1</text>
<text x="880" y="502" font-size="15" font-weight="700" fill="#116329">Pass</text>
<rect x="16" y="532" width="420" height="48" rx="8" fill="#0E1A27" stroke="#D4D4D8"/>
<text x="32" y="563" font-size="18" font-weight="700" fill="#D3DCE6">Aa  Sample text in this pair</text>
<text x="452" y="553" font-size="14" font-weight="700" fill="#18181B">palette.body on palette.surface (dark)</text>
<text x="452" y="572" font-size="12" fill="#52525B">body text</text>
<text x="800" y="562" font-size="15" font-weight="700" fill="#18181B">12.66:1</text>
<text x="880" y="562" font-size="15" font-weight="700" fill="#116329">Pass</text>
<rect x="16" y="592" width="420" height="48" rx="8" fill="#0E1A27" stroke="#D4D4D8"/>
<text x="32" y="623" font-size="18" font-weight="700" fill="#F4F7FA">Aa  Sample text in this pair</text>
<text x="452" y="613" font-size="14" font-weight="700" fill="#18181B">palette.ink on palette.surface (dark)</text>
<text x="452" y="632" font-size="12" fill="#52525B">headings</text>
<text x="800" y="622" font-size="15" font-weight="700" fill="#18181B">16.33:1</text>
<text x="880" y="622" font-size="15" font-weight="700" fill="#116329">Pass</text>
<rect x="16" y="652" width="420" height="48" rx="8" fill="#0E1A27" stroke="#D4D4D8"/>
<text x="32" y="683" font-size="18" font-weight="700" fill="#8EC1F5">Aa  Sample text in this pair</text>
<text x="452" y="673" font-size="14" font-weight="700" fill="#18181B">palette.link on palette.surface (dark)</text>
<text x="452" y="692" font-size="12" fill="#52525B">links</text>
<text x="800" y="682" font-size="15" font-weight="700" fill="#18181B">9.28:1</text>
<text x="880" y="682" font-size="15" font-weight="700" fill="#116329">Pass</text>
<rect x="16" y="712" width="420" height="48" rx="8" fill="#2A64A8" stroke="#D4D4D8"/>
<text x="32" y="743" font-size="18" font-weight="700" fill="#FFFFFF">Aa  Sample text in this pair</text>
<text x="452" y="733" font-size="14" font-weight="700" fill="#18181B">palette.onPrimary on palette.primary (dark)</text>
<text x="452" y="752" font-size="12" fill="#52525B">white label on a civic blue button</text>
<text x="800" y="742" font-size="15" font-weight="700" fill="#18181B">6.02:1</text>
<text x="880" y="742" font-size="15" font-weight="700" fill="#116329">Pass</text>
<rect x="16" y="772" width="420" height="48" rx="8" fill="#16283B" stroke="#D4D4D8"/>
<text x="32" y="803" font-size="18" font-weight="700" fill="#D3DCE6">Aa  Sample text in this pair</text>
<text x="452" y="793" font-size="14" font-weight="700" fill="#18181B">palette.body on palette.subtle (dark)</text>
<text x="452" y="812" font-size="12" fill="#52525B">text on a card</text>
<text x="800" y="802" font-size="15" font-weight="700" fill="#18181B">10.81:1</text>
<text x="880" y="802" font-size="15" font-weight="700" fill="#116329">Pass</text>
<rect x="16" y="832" width="420" height="48" rx="8" fill="#16283B" stroke="#D4D4D8"/>
<text x="32" y="863" font-size="18" font-weight="700" fill="#8EC1F5">Aa  Sample text in this pair</text>
<text x="452" y="853" font-size="14" font-weight="700" fill="#18181B">palette.link on palette.subtle (dark)</text>
<text x="452" y="872" font-size="12" fill="#52525B">links on a card</text>
<text x="800" y="862" font-size="15" font-weight="700" fill="#18181B">7.92:1</text>
<text x="880" y="862" font-size="15" font-weight="700" fill="#116329">Pass</text>
<rect x="16" y="892" width="420" height="48" rx="8" fill="#2E7D4F" stroke="#D4D4D8"/>
<text x="32" y="923" font-size="18" font-weight="700" fill="#FFFFFF">Aa  Sample text in this pair</text>
<text x="452" y="913" font-size="14" font-weight="700" fill="#18181B">palette.onPrimary on palette.success (dark)</text>
<text x="452" y="932" font-size="12" fill="#52525B">white text on a green success message</text>
<text x="800" y="922" font-size="15" font-weight="700" fill="#18181B">5.04:1</text>
<text x="880" y="922" font-size="15" font-weight="700" fill="#116329">Pass</text>
<rect x="16" y="952" width="420" height="48" rx="8" fill="#F2B632" stroke="#D4D4D8"/>
<text x="32" y="983" font-size="18" font-weight="700" fill="#0B1F33">Aa  Sample text in this pair</text>
<text x="452" y="973" font-size="14" font-weight="700" fill="#18181B">palette.onAlert on palette.alert (dark)</text>
<text x="452" y="992" font-size="12" fill="#52525B">dark text on a gold alert banner</text>
<text x="800" y="982" font-size="15" font-weight="700" fill="#18181B">9.15:1</text>
<text x="880" y="982" font-size="15" font-weight="700" fill="#116329">Pass</text>
</g>
</svg>
